<?xml version="1.0" encoding="utf-8"?>
<!-- Uploaded to: SVG Repo, www.svgrepo.com, Generator: SVG Repo Mixer Tools -->
<svg width="800px" height="800px" viewBox="0 0 1024 1024" class="icon"  version="1.1" xmlns="http://www.w3.org/2000/svg"><path d="M750.025693 380.495241h-7.441598v-7.441599c0-4.039228-3.402371-7.441599-7.441599-7.441599s-7.441599 3.402371-7.441599 7.441599v7.441599h-7.441598c-4.039228 0-7.441599 3.402371-7.441599 7.441598s3.402371 7.441599 7.441599 7.441599h7.441598v7.441598c0 4.039228 3.402371 7.441599 7.441599 7.441599s7.441599-3.402371 7.441599-7.441599v-7.441598h7.441598c4.039228 0 7.441599-3.402371 7.441599-7.441599s-3.402371-7.441599-7.441599-7.441598zM735.142496 841.87435c-12.118707 0-21.899883-9.780153-21.899883-21.899883 0-12.118707 9.780153-21.899883 21.899883-21.899883s21.899883 9.780153 21.899883 21.899883c-0.001024 12.119731-9.781177 21.899883-21.899883 21.899883z m0-28.915545c-3.827283 0-7.016686 3.189403-7.016686 7.016686 0 3.827283 3.189403 7.016686 7.016686 7.016686s7.016686-3.189403 7.016686-7.016686c-0.001024-3.827283-3.190427-7.016686-7.016686-7.016686z" fill="#F16723" /><path d="M244.421905 777.451485m-4.465164 0a4.465164 4.465164 0 1 0 8.930328 0 4.465164 4.465164 0 1 0-8.930328 0Z" fill="" /><path d="M221.885165 315.860432m-4.465164 0a4.465164 4.465164 0 1 0 8.930328 0 4.465164 4.465164 0 1 0-8.930328 0Z" fill="" /><path d="M238.469035 614.587166m-4.465163 0a4.465164 4.465164 0 1 0 8.930327 0 4.465164 4.465164 0 1 0-8.930327 0Z" fill="" /><path d="M202.961716 296.087158m-6.59075 0a6.59075 6.59075 0 1 0 13.1815 0 6.59075 6.59075 0 1 0-13.1815 0Z" fill="" /><path d="M735.142496 584.394836m-6.59075 0a6.59075 6.59075 0 1 0 13.1815 0 6.59075 6.59075 0 1 0-13.1815 0Z" fill="" /><path d="M818.913722 178.935223m-6.59075 0a6.59075 6.59075 0 1 0 13.181499 0 6.59075 6.59075 0 1 0-13.181499 0Z" fill="" /><path d="M238.469035 158.523045c-14.032348 0-25.30123-11.268882-25.30123-25.30123s11.268882-25.30123 25.30123-25.30123c14.032348 0 25.30123 11.268882 25.301231 25.30123s-11.268882 25.30123-25.301231 25.30123z m0-35.719263c-5.740925 0-10.418033 4.677108-10.418033 10.418033 0 5.740925 4.677108 10.418033 10.418033 10.418033s10.418033-4.677108 10.418034-10.418033c0-5.739901-4.677108-10.418033-10.418034-10.418033z" fill="#FBD20A" /><path d="M254.839938 565.472411c-9.780153 0-17.859632-8.079479-17.859632-17.859632 0-9.780153 8.079479-17.859632 17.859632-17.859631 9.780153 0 17.859632 8.079479 17.859632 17.859631 0.001024 9.780153-8.078455 17.859632-17.859632 17.859632z m0-20.836066c-1.700674 0-2.976435 1.275761-2.976435 2.976434s1.275761 2.976435 2.976435 2.976435 2.976435-1.275761 2.976435-2.976435c0.001024-1.700674-1.274737-2.976435-2.976435-2.976434z" fill="#4E9BD4" /><path d="M612.249636 518.058329V165.964644c0-48.901787-32.529861-88.448334-72.715312-88.448334H392.828963c-40.184427 0-72.715312 39.546547-72.715312 88.448334v352.093685h292.135985zM319.901707 518.909178v339.337098c0 47.201113 32.530885 85.258931 72.715312 85.258931h146.705361c40.184427 0 72.715312-38.270786 72.715312-85.258931V518.909178H319.901707z" fill="#FFFFFF" /><path d="M676.247588 518.058329V165.964644c0-48.901787-32.529861-88.448334-72.715312-88.448334H456.826915c-40.184427 0-72.715312 39.546547-72.715311 88.448334v352.093685h292.135984z" fill="#3769A5" /><path d="M383.898635 518.909178v339.337098c0 47.201113 32.530885 85.258931 72.715312 85.258931h146.705361c40.184427 0 72.715312-38.270786 72.715312-85.258931V518.909178H383.898635z" fill="#CF316A" /><path d="M624.794279 518.058329V165.964644c0-48.901787-30.404275-88.448334-67.825236-88.448334H420.256803c-37.420961 0-67.825236 39.546547-67.825235 88.448334v352.093685h272.362711z" fill="#4E9BD4" /><path d="M352.2186 518.909178v339.337098c0 47.201113 30.404275 85.258931 67.825235 85.258931h136.71224c37.420961 0 67.825236-38.270786 67.825236-85.258931V518.909178H352.2186z" fill="#F05F88" /><path d="M352.2186 848.678068v9.568208c0 47.201113 30.404275 85.258931 67.825235 85.258931h136.71224c37.420961 0 67.825236-38.270786 67.825236-85.258931v-9.568208H352.2186z" fill="#EE3C7A" /><path d="M624.794279 172.130481v-9.568208c0-47.201113-30.404275-85.258931-67.825236-85.258931H420.256803c-37.420961 0-67.825236 38.270786-67.825235 85.258931v9.568208h272.362711z" fill="#4077BB" /><path d="M389.00168 786.381813c-4.039228 0-7.441599-3.402371-7.441599-7.441598v-69.525909c0-4.039228 3.402371-7.441599 7.441599-7.441599s7.441599 3.402371 7.441598 7.441599v69.525909c0 4.039228-3.401347 7.441599-7.441598 7.441598z" fill="#FFFFFF" /><path d="M675.39674 721.957925c-7.016686 0-12.756587 5.740925-12.756588 12.756587v120.12837c0 41.673157-34.01859 75.691747-75.691746 75.691746H408.563009c-41.673157 0-75.691747-34.01859-75.691747-75.691746V435.775833c0-7.016686-5.740925-12.756587-12.756587-12.756587s-12.756587 5.740925-12.756587 12.756587v419.068072c0 55.705505 45.50044 101.205945 101.205945 101.205945h178.385397c55.705505 0 101.205945-45.50044 101.205945-101.205945V734.715536c-0.002048-7.016686-5.741949-12.757611-12.758635-12.757611z" fill="" /><path d="M319.901707 315.434495c7.016686 0 12.756587-5.740925 12.756587-12.756587v-138.83885c0-41.673157 34.01859-75.691747 75.691747-75.691746h178.385397c41.673157 0 75.691747 34.01859 75.691746 75.691746v341.887597H353.069448c-7.016686 0-12.756587 5.740925-12.756587 12.756587s5.740925 12.756587 12.756587 12.756587h309.357736v174.771082c0 7.016686 5.740925 12.756587 12.756587 12.756587s12.756587-5.740925 12.756588-12.756587V520.82282c0.212968-0.637881 0.212968-1.488729 0.212968-2.338554 0-0.850849 0-1.488729-0.212968-2.338554V163.839058c0-55.705505-45.50044-101.205945-101.205945-101.205945H408.350041c-55.705505 0-101.205945 45.50044-101.205945 101.205945v138.83885c0 7.016686 5.740925 12.756587 12.757611 12.756587z" fill="" /><path d="M319.901707 415.577647c7.016686 0 12.756587-5.740925 12.756587-12.756587v-64.847777c0-7.016686-5.740925-12.756587-12.756587-12.756587s-12.756587 5.740925-12.756587 12.756587v64.847777c-0.001024 7.015662 5.739901 12.756587 12.756587 12.756587z" fill="" /><path d="M389.00168 194.668245c-4.039228 0-7.441599-3.402371-7.441599-7.441598 0-32.955797 26.78996-59.745756 59.745757-59.745757 4.039228 0 7.441599 3.402371 7.441598 7.441599s-3.402371 7.441599-7.441598 7.441598c-24.66335 0-44.862559 20.198186-44.86256 44.86256 0 4.040251-3.401347 7.441599-7.441598 7.441598zM389.00168 233.78988c-4.039228 0-7.441599-3.402371-7.441599-7.441599v-11.693794c0-4.039228 3.402371-7.441599 7.441599-7.441599s7.441599 3.402371 7.441598 7.441599v11.693794c0 4.039228-3.401347 7.441599-7.441598 7.441599z" fill="#FFFFFF" /></svg>