<?xml version="1.0" encoding="utf-8"?>
<!-- Uploaded to: SVG Repo, www.svgrepo.com, Generator: SVG Repo Mixer Tools -->
<svg width="800px" height="800px" viewBox="0 0 1024 1024" class="icon"  version="1.1" xmlns="http://www.w3.org/2000/svg"><path d="M651.613931 923.931592c-2.978482 2.340602 1.488729 3.616363 0 0zM793.079047 759.916425l98.494697-393.338858c15.955205-63.39386-22.549027-127.638568-85.942887-143.380805-63.39386-15.955205-127.638568 22.549027-143.380805 85.942886l-99.132577 395.891405 0.850849 0.212968c-1.701697 1.488729-2.339578 4.042299-1.276785 6.381877l88.921368 212.30467 39.568049-47.651623 101.898091-116.36252z" fill="#FFFFFF" /><path d="M838.816005 773.956965l-229.53666-57.436895 99.132577-395.891404c15.955205-63.39386 79.986945-101.898091 143.380805-85.942887 63.39386 15.955205 101.898091 79.986945 85.942887 143.380806l-98.919609 395.89038z" fill="#D0481F" /><path d="M824.563521 223.197786c-59.777497-5.956965-115.938631 30.420657-130.191115 87.857552l-99.132577 395.891404 203.796183 51.055018 99.132577-395.891404c14.039516-57.436895-18.082839-115.937607-73.605068-138.91257z" fill="#F16723" /><path d="M885.829747 410.825796l12.125874-48.71544c14.252484-57.436895-17.869871-115.938631-73.3921-138.91257-59.777497-5.956965-115.938631 30.420657-130.191115 87.857552l-12.125874 48.71544 203.583215 51.055018z" fill="#F05225" /><path d="M834.774729 770.340602L594.38898 710.138193l51.693923 154.867774 12.550786 60.628346c1.488729 3.616363-2.978482 2.339578 0 0l178.480618-145.295471c3.616363-2.978482 2.127634-8.934423-2.339578-9.99824z" fill="#FFE4B8" /><path d="M622.682004 859.261971l27.017262 64.244708c1.488729 3.616363 5.955941 4.68018 8.934423 2.127634l54.0335-44.03526-89.985185-22.337082z" fill="#F16723" /><path d="M797.972195 761.19321l-98.281728 117.214392 17.443934 4.467212 112.74718-96.791975 4.0423-15.955205z" fill="#E7D0A9" /><path d="M722.878398 306.16219c-0.637881 0-1.276785 0-1.914666-0.212968-4.042299-1.063817-6.381877-5.105092-5.31806-8.934424 3.403395-13.401635 11.699938-24.889628 23.612843-31.909386 11.912906-7.232726 25.740477-9.147391 39.35508-5.743996 4.042299 1.063817 6.381877 5.105092 5.318061 8.934423-1.063817 4.042299-5.105092 6.381877-8.934424 5.31806-9.573328-2.339578-19.571568-0.850849-27.86811 4.254244-8.509511 5.105092-14.465452 13.189691-16.806054 22.761994-1.062793 3.192474-4.041275 5.532052-7.44467 5.532053z" fill="#FFFFFF" /><path d="M927.737373 280.847649c-21.273265-35.313805-54.884349-60.202409-94.878333-70.200649-39.992961-9.99824-81.475675-3.829331-116.78948 17.443934s-60.202409 54.884349-70.200649 94.87731l-19.996481 79.773977c-1.488729 5.743997 1.276785 11.699938 6.381878 14.465452-5.743997-0.212968-11.062057 3.829331-12.550787 9.573328l-9.99824 40.205928c-1.276785 5.531029 1.063817 11.062057 5.743997 14.04054-5.31806 0.212968-10.211208 4.042299-11.699938 9.573328l-51.480954 205.49788c-3.616363 14.465452-2.552546 29.994721 3.19145 43.609324l75.306766 182.309949c3.616363 8.721455 10.849089 14.891388 19.996481 17.230966 2.339578 0.637881 4.68018 0.850849 7.019757 0.850849 6.594845 0 13.189691-2.339578 18.507751-6.594846L828.60582 808.206953c11.275025-9.36036 19.145632-21.698178 22.974963-35.738717 0.212968-0.425936 0.212968-0.850849 0.425936-1.276785 0-0.425936 0.212968-0.637881 0.212968-1.063817l24.251748-97.004944c1.488729-5.743997-1.276785-11.486969-6.168909-14.252483 5.531029-0.212968 10.636121-4.042299 12.125874-9.573328l62.967924-251.447806c9.57128-40.205929 3.401347-81.688643-17.658951-117.001424z m-7.445694 110.619547l-62.967923 251.447806c-1.488729 5.743997 1.276785 11.486969 5.956965 14.252483-5.531029 0.212968-10.636121 4.042299-12.125874 9.573328l-21.486234 85.729918-231.66327-58.075799c-6.807814-1.701697-13.827571 2.339578-15.529268 9.360359-1.701697 6.807814 2.339578 13.827571 9.360359 15.529269l229.748604 57.649863c-2.552546 4.467212-5.956965 8.296543-9.785272 11.48697L659.484538 913.720383c-1.063817 1.063817-2.339578 0.850849-3.191451 0.637881-0.637881-0.212968-1.914666-0.637881-2.552546-2.127634l-75.306766-182.309949c-3.616363-8.721455-4.254244-18.507751-1.914665-27.655143l51.480954-205.49788c1.488729-5.531029-1.063817-11.275025-5.743997-14.040539 5.531029-0.212968 10.211208-4.042299 11.699938-9.573328l9.99824-40.205929c1.488729-5.743997-1.276785-11.699938-6.381877-14.465452 5.743997 0.212968 11.062057-3.829331 12.550786-9.573328l9.99824-39.781016 232.089206 58.075799c1.063817 0.212968 2.127634 0.425936 3.191451 0.425936 5.743997 0 10.849089-3.829331 12.337818-9.573327 1.701697-6.807814-2.339578-13.827571-9.36036-15.529269l-232.089206-58.0758 3.829332-15.3163c8.296543-33.399139 29.143872-61.479194 58.71368-79.136097s64.03174-22.761995 97.642824-14.465452c33.399139 8.296543 61.479194 29.143872 79.136096 58.71368 17.870894 29.14592 22.975987 63.821844 14.679444 97.21996z" fill="" /><path d="M714.794823 338.284544c-0.637881 0-1.276785 0-1.701697-0.212968-4.042299-1.063817-6.381877-5.105092-5.531029-8.934423l2.339578-9.573328c1.063817-4.042299 5.105092-6.381877 8.934423-5.531029 4.042299 1.063817 6.381877 5.105092 5.531029 8.934424l-2.339578 9.573327c-0.850849 3.404419-3.829331 5.743997-7.232726 5.743997zM628.850913 682.057114c-0.637881 0-1.276785 0-1.701698-0.212969-4.042299-1.063817-6.381877-5.105092-5.531028-8.934423l14.252483-57.436895c1.063817-4.042299 5.105092-6.381877 8.934424-5.531028 4.042299 1.063817 6.381877 5.105092 5.531028 8.934423l-14.252483 57.436895c-0.850849 3.404419-3.828307 5.743997-7.232726 5.743997z" fill="#FFFFFF" /><path d="M371.447166 925.208377c-1.488729 3.616363 2.765514 2.339578 0 0zM417.823028 713.541587l-100.621307-392.700977c-16.167149-63.180892-80.624826-101.472155-144.018685-85.092038-63.180892 16.167149-101.472155 80.624826-85.092038 144.018686L189.350185 775.020782l0.850848-0.212968c-0.637881 2.127634-0.212968 4.68018 1.914666 6.168909l179.331467 144.231654 12.125874-60.628346 34.249988-151.038444z" fill="#FFFFFF" /><path d="M464.623802 704.181228l-229.110723 58.71368-101.260211-395.040556c-16.167149-63.180892 21.911146-127.638568 85.092037-144.018686 63.180892-16.167149 127.638568 21.911146 144.018686 85.092038l101.260211 395.253524z" fill="#D99816" /><path d="M189.775097 226.601181c-55.52223 23.187931-87.43264 81.901611-72.754219 139.338506l101.260211 395.253523L421.651335 709.074376l-101.260211-395.253524c-14.464428-57.437919-70.83853-93.601549-130.616027-87.219671z" fill="#FBD20A" /><path d="M332.942934 362.323324l-12.550786-48.71544c-14.67842-57.224951-71.052522-93.38858-130.828995-87.219671-55.52223 23.187931-87.43264 81.901611-72.75422 139.338506l12.550787 48.715439 203.583214-52.118834z" fill="#FAAF1A" /><path d="M459.304718 702.904443l-240.172781 61.479194 119.129058 111.683363 39.781016 47.438655c2.978482 2.339578-1.488729 3.616363 0 0l87.857552-212.730606c1.914666-4.466188-1.914666-8.933399-6.594845-7.870606z" fill="#FFE4B8" /><path d="M315.074088 882.023965l54.246468 43.609324c2.978482 2.339578 7.445694 1.276785 8.934423-2.339578l26.591326-64.457677-89.772217 23.187931z" fill="#FBD20A" /><path d="M422.715152 712.264802L392.082551 862.452397l17.443934-4.679156 52.969683-138.700625-4.042299-15.955205z" fill="#E7D0A9" /><path d="M136.380501 348.921689c-3.403395 0-6.381877-2.127634-7.232726-5.531029-7.232726-27.655143 9.573328-55.948166 37.227447-63.180891 4.042299-1.063817 8.083575 1.276785 9.147391 5.31806 1.063817 4.042299-1.276785 8.083575-5.31806 9.147391-19.783512 5.105092-31.696418 25.314541-26.591326 44.886109 1.063817 4.042299-1.276785 8.083575-5.31806 9.147392-0.638904 0.212968-1.276785 0.212968-1.914666 0.212968z" fill="#FFFFFF" /><path d="M474.833987 697.79935c0-0.850849-0.212968-1.701697-0.425937-2.339577-0.212968-0.637881-0.425936-1.276785-0.63788-1.701698l-24.463692-96.154095c-1.488729-5.743997-6.381877-9.36036-11.912906-9.573327 4.893148-2.765514 7.445694-8.509511 5.956965-14.252484l-64.244709-250.808902c-10.211208-39.992961-35.313805-73.605068-70.839554-94.452397-35.525749-21.060297-77.008463-27.017262-117.001424-16.806054-82.539492 21.059273-132.318748 105.300462-111.258451 187.839954l20.422417 79.773978c1.488729 5.743997 6.381877 9.36036 11.912906 9.573327-4.893148 2.765514-7.445694 8.509511-5.956965 14.252484l10.424176 39.992961c1.488729 5.531029 6.168909 9.147391 11.699938 9.573328-4.68018 2.765514-7.232726 8.509511-5.743997 14.040539l52.544771 205.284912c3.616363 14.465452 12.125874 27.655143 23.612844 37.015503l152.953109 124.447117c5.31806 4.254244 11.699938 6.594845 18.294783 6.594846 2.339578 0 4.893148-0.212968 7.232726-0.850849 8.934423-2.339578 16.380117-8.721455 19.783512-17.230966L471.430592 739.282064c5.31806-13.189691 6.381877-27.868111 3.403395-41.482714z m-27.229207 31.484474l-74.242949 182.94783c-0.637881 1.488729-1.701697 1.914666-2.339577 2.127634-0.637881 0.212968-1.914666 0.212968-2.978483-0.637881L215.090662 789.273265c-7.445694-5.956965-12.550786-14.252484-14.891388-23.399875l-52.544771-205.284912c-1.488729-5.531029-6.168909-9.36036-11.699938-9.573328 4.68018-2.765514 7.019758-8.509511 5.743997-14.040539l-10.424177-39.992961c-1.488729-5.531029-6.381877-9.36036-11.912905-9.573328 4.893148-2.765514 7.445694-8.509511 5.956964-14.252483l-10.424176-39.992961 231.876238-59.564529c6.807814-1.701697 10.849089-8.721455 9.147391-15.529269-1.701697-6.807814-8.721455-10.849089-15.529269-9.147391l-231.876237 59.564529-3.829332-15.316301c-8.509511-33.399139-3.616363-68.07404 14.04054-97.643848 17.656902-29.569808 45.523989-50.630105 78.923129-59.138592 33.399139-8.509511 68.07404-3.616363 97.643847 14.040539 29.569808 17.656902 50.630105 45.523989 59.138593 78.923129l64.244709 250.808901c1.488729 5.743997 6.381877 9.36036 12.125873 9.573328-4.893148 2.765514-7.445694 8.509511-6.168909 14.252484l21.911146 85.517974-231.025389 59.35156c-6.807814 1.701697-10.849089 8.721455-9.147391 15.529269a12.715632 12.715632 0 0 0 12.338842 9.573328c1.063817 0 2.127634-0.212968 3.19145-0.425937l229.323692-58.926648c-0.42696 5.105092-1.490777 9.99824-3.618411 14.67842z" fill="" /><path d="M144.67602 381.043019c-3.191451 0-6.381877-2.127634-7.232726-5.531028l-2.552546-9.573328c-1.063817-4.042299 1.276785-8.083575 5.318061-9.147392 4.042299-1.063817 8.083575 1.276785 9.147391 5.318061l2.552546 9.573328c1.063817 4.042299-1.276785 8.083575-5.31806 9.147391-0.637881 0.212968-1.275761 0.212968-1.914666 0.212968zM232.534596 724.177708c-3.403395 0-6.381877-2.339578-7.232726-5.531028l-14.465452-57.224951c-1.063817-4.042299 1.488729-8.083575 5.318061-9.147392 4.042299-1.063817 8.083575 1.488729 9.147391 5.318061l14.465452 57.22495c1.063817 4.042299-1.488729 8.083575-5.31806 9.147392-0.638904 0.212968-1.276785 0.212968-1.914666 0.212968z" fill="#FFFFFF" /><path d="M509.296943 935.206617c-2.765514 3.616363 2.765514 3.616363 0 0zM624.383701 706.733774v-478.430896c0-77.008463-62.543011-139.551474-139.551474-139.551474-77.008463 0-139.551474 62.543011-139.551474 139.551474v481.622346h1.063816c-1.488729 2.127634-1.488729 5.31806 0.212969 7.658663l162.738381 217.623754 31.696418-65.733438 83.391364-162.740429z" fill="#FFFFFF" /><path d="M680.757803 709.925224h-279.315916V228.302878c0-77.008463 62.543011-139.551474 139.551474-139.551474 77.008463 0 139.551474 62.543011 139.551474 139.551474v481.622346h0.212968z" fill="#3769A5" /><path d="M506.531428 83.220375c-70.20065 10.424176-124.022206 68.07404-124.022205 137.849777v481.622346h247.831443V221.070152c0-69.775737-53.608588-127.638568-123.809238-137.849777z" fill="#4E9BD4" /><path d="M630.340666 280.421713V221.070152c0-69.775737-53.820532-127.638568-124.022206-137.849777-70.20065 10.424176-124.022206 68.07404-124.022205 137.849777v59.351561h248.044411z" fill="#4077BB" /><path d="M675.013806 706.733774H382.509223l103.599789 162.526437 31.696418 65.946406c2.765514 3.616363-2.765514 3.616363 0 0L680.544835 717.582863c3.403395-4.467212 0.212968-10.849089-5.531029-10.849089z" fill="#FFE4B8" /><path d="M457.815989 869.473179l49.140352 65.733438a6.781193 6.781193 0 0 0 10.849089 0l49.140352-65.733438H457.815989z" fill="#4077BB" /><path d="M630.340666 706.733774l-78.923129 162.739405h21.273266l101.259187-143.380805v-19.3586z" fill="#E7D0A9" /><path d="M411.866063 206.178764c-4.042299 0-7.445694-3.403395-7.445694-7.445694 0-32.973203 26.804294-59.777497 59.777497-59.777497 4.042299 0 7.445694 3.403395 7.445694 7.445694s-3.403395 7.445694-7.445694 7.445694c-24.67666 0-44.886109 20.209449-44.886109 44.886109 0 4.042299-3.403395 7.445694-7.445694 7.445694z" fill="#FFFFFF" /><path d="M345.281776 362.110356c-7.019758 0-12.763754 5.743997-12.763754 12.763754v48.928408c0 7.019758 5.743997 12.763754 12.763754 12.763755s12.763754-5.743997 12.763755-12.763755v-48.928408c0-7.019758-5.743997-12.763754-12.763755-12.763754z" fill="" /><path d="M345.068808 358.706961c7.019758 0 12.763754-5.743997 12.763755-12.763755v-50.843073h285.058889c7.019758 0 12.763754-5.743997 12.763755-12.763755 0-7.019758-5.743997-12.763754-12.763755-12.763754H357.832563V248.725295c0-85.092038 69.349801-154.442862 154.442862-154.442863s154.442862 69.349801 154.442863 154.442863v305.694274c0 7.019758 5.743997 12.763754 12.763754 12.763754s12.763754-5.743997 12.763754-12.763754V248.725295c0-99.132577-80.837794-179.970371-179.970371-179.970372S332.305054 149.592718 332.305054 248.725295v97.217911c0 7.019758 5.743997 12.763754 12.763754 12.763755zM679.693986 570.799686c-7.019758 0-12.763754 5.743997-12.763754 12.763755v106.365303H382.509223c-7.019758 0-12.763754 5.743997-12.763754 12.763754s5.743997 12.763754 12.763754 12.763755h282.931256c-1.701697 7.019758-4.68018 13.827571-9.147392 19.783512L517.80543 922.442862c-1.914666 2.339578-4.254244 2.765514-5.531029 2.765515s-3.403395-0.425936-5.105092-2.552546L368.681652 735.452733c-7.019758-9.573328-10.849089-21.060297-10.849089-32.760235V452.521478c0-7.019758-5.743997-12.763754-12.763755-12.763755s-12.763754 5.743997-12.763754 12.763755v250.17102c0 17.230966 5.31806 33.611084 15.742237 47.864592L486.534948 937.759163c5.956965 8.296543 15.316301 12.976723 25.527509 12.976723h0.212968c10.211208 0 19.571568-4.68018 25.953445-12.976723l138.487658-187.203097c10.211208-14.040539 15.529269-30.633625 15.529268-47.651623v-119.129058a12.540547 12.540547 0 0 0-12.55181-12.975699z" fill="" /><path d="M411.866063 245.533844c-4.042299 0-7.445694-3.403395-7.445694-7.445694v-11.699937c0-4.042299 3.403395-7.445694 7.445694-7.445695s7.445694 3.403395 7.445694 7.445695v11.699937c0 4.042299-3.403395 7.445694-7.445694 7.445694zM411.866063 663.549362c-4.042299 0-7.445694-3.403395-7.445694-7.445694v-69.562769c0-4.042299 3.403395-7.445694 7.445694-7.445694s7.445694 3.403395 7.445694 7.445694v69.562769c0 4.042299-3.403395 7.445694-7.445694 7.445694z" fill="#FFFFFF" /><path d="M759.680932 110.237637h-7.445694v-7.445694c0-4.042299-3.403395-7.445694-7.445694-7.445694s-7.445694 3.403395-7.445695 7.445694v7.445694h-7.445694c-4.042299 0-7.445694 3.403395-7.445694 7.445694s3.403395 7.445694 7.445694 7.445695h7.445694v7.445694c0 4.042299 3.403395 7.445694 7.445695 7.445694s7.445694-3.403395 7.445694-7.445694v-7.445694h7.445694c4.042299 0 7.445694-3.403395 7.445694-7.445695s-3.404419-7.445694-7.445694-7.445694z" fill="#FBD20A" /><path d="M102.768394 638.659734h-7.445694v-7.445694c0-4.042299-3.403395-7.445694-7.445694-7.445694-4.042299 0-7.445694 3.403395-7.445694 7.445694v7.445694H72.985618c-4.042299 0-7.445694 3.403395-7.445694 7.445694s3.403395 7.445694 7.445694 7.445694h7.445694v7.445694c0 4.042299 3.403395 7.445694 7.445694 7.445694 4.042299 0 7.445694-3.403395 7.445694-7.445694v-7.445694h7.445694c4.042299 0 7.445694-3.403395 7.445694-7.445694s-3.403395-7.445694-7.445694-7.445694z" fill="#F16723" /><path d="M887.957381 839.903371h-7.445694v-7.445694c0-4.042299-3.403395-7.445694-7.445694-7.445694s-7.445694 3.403395-7.445694 7.445694v7.445694h-7.445695c-4.042299 0-7.445694 3.403395-7.445694 7.445694 0 4.042299 3.403395 7.445694 7.445694 7.445694h7.445695v7.445694c0 4.042299 3.403395 7.445694 7.445694 7.445694s7.445694-3.403395 7.445694-7.445694v-7.445694h7.445694c4.042299 0 7.445694-3.403395 7.445694-7.445694 0-4.042299-3.404419-7.445694-7.445694-7.445694z" fill="#4E9BD4" /><path d="M931.992641 600.155503c-12.125874 0-21.911146-9.785272-21.911146-21.911146 0-12.125874 9.785272-21.911146 21.911146-21.911146s21.911146 9.785272 21.911146 21.911146c0 12.125874-9.786296 21.911146-21.911146 21.911146z m0-28.930904c-3.829331 0-7.019758 3.191451-7.019758 7.019758 0 3.829331 3.191451 7.019758 7.019758 7.019757s7.019758-3.191451 7.019758-7.019757-3.190427-7.019758-7.019758-7.019758z" fill="#F16723" /><path d="M921.781432 641.213304m-4.467211 0a4.467212 4.467212 0 1 0 8.934423 0 4.467212 4.467212 0 1 0-8.934423 0Z" fill="" /><path d="M802.226439 117.683331m-4.467212 0a4.467212 4.467212 0 1 0 8.934423 0 4.467212 4.467212 0 1 0-8.934423 0Z" fill="" /><path d="M251.041323 95.559217m-4.467211 0a4.467212 4.467212 0 1 0 8.934423 0 4.467212 4.467212 0 1 0-8.934423 0Z" fill="" /><path d="M113.617483 729.921705m-4.467212 0a4.467212 4.467212 0 1 0 8.934424 0 4.467212 4.467212 0 1 0-8.934424 0Z" fill="" /><path d="M215.728542 93.431584m-6.594845 0a6.594845 6.594845 0 1 0 13.189691 0 6.594845 6.594845 0 1 0-13.189691 0Z" fill="" /><path d="M277.207737 172.354712c-14.040539 0-25.314541-11.275025-25.314541-25.31454s11.275025-25.314541 25.314541-25.314541a25.238773 25.238773 0 0 1 25.314541 25.314541 25.238773 25.238773 0 0 1-25.314541 25.31454z m0-35.738717c-5.743997 0-10.424176 4.68018-10.424177 10.424177 0 5.743997 4.68018 10.424176 10.424177 10.424176 5.743997 0 10.424176-4.68018 10.424176-10.424176 0-5.743997-4.68018-10.424176-10.424176-10.424177z" fill="#FBD20A" /><path d="M168.289888 833.946406c-9.785272 0-17.869871 8.083575-17.869871 17.869871 0 9.785272 8.083575 17.869871 17.869871 17.86987 9.785272 0 17.869871-8.083575 17.86987-17.86987-0.001024-9.785272-8.084599-17.869871-17.86987-17.869871z m0 20.848353c-1.701697 0-2.978482-1.276785-2.978483-2.978482s1.276785-2.978482 2.978483-2.978483c1.701697 0 2.978482 1.276785 2.978482 2.978483s-1.276785 2.978482-2.978482 2.978482z" fill="#4E9BD4" /></svg>