<?xml version="1.0" encoding="iso-8859-1"?>
<!-- Uploaded to: SVG Repo, www.svgrepo.com, Generator: SVG Repo Mixer Tools -->
<svg height="800px" width="800px" version="1.1" id="Layer_1" xmlns="http://www.w3.org/2000/svg" xmlns:xlink="http://www.w3.org/1999/xlink" 
	 viewBox="0 0 512 512" xml:space="preserve">
<path style="fill:#FFF173;" d="M106.234,140.233c28.211-28.212,62.982-47.475,100.87-56.386V43.525
	c0-18.405,14.92-33.326,33.326-33.326l0,0c8.839,0,17.315,3.512,23.564,9.761l71.113,71.113c13.014,13.014,13.014,34.115,0,47.129
	l-71.113,71.113c-6.25,6.25-14.727,9.761-23.564,9.761l0,0c-18.405,0-33.326-14.92-33.326-33.325v-32.415
	c-56.052,20.113-96.255,73.777-96.255,136.663c0,80.036,65.115,145.151,145.151,145.151s145.151-65.114,145.151-145.151
	c0-18.405,14.92-33.325,33.325-33.325c18.405,0,33.326,14.92,33.326,33.325c0,56.575-22.031,109.763-62.036,149.766
	c-40.003,40.004-93.192,62.036-149.766,62.036s-109.763-22.031-149.766-62.036c-40.004-40.004-62.036-93.192-62.036-149.766
	C44.199,233.425,66.23,180.237,106.234,140.233z"/>
<g>
	<path style="fill:#248A9C;" d="M256.001,512c-59.299,0-115.048-23.093-156.978-65.023S34,349.298,34,289.999
		c0-59.298,23.093-115.047,65.023-156.978c27.346-27.346,61.048-46.98,97.883-57.098V43.525c0-24,19.524-43.525,43.524-43.525
		c11.625,0,22.556,4.527,30.777,12.748l71.113,71.113c8.222,8.222,12.748,19.151,12.748,30.777s-4.526,22.557-12.748,30.777
		l-71.113,71.114c-8.223,8.221-19.151,12.747-30.777,12.747c-24,0-43.525-19.525-43.525-43.524v-17.055
		C150.992,191.13,121.049,238.179,121.049,290c0,74.413,60.538,134.952,134.951,134.952S390.95,364.413,390.95,290
		c0-23.999,19.525-43.524,43.525-43.524c24,0,43.525,19.525,43.525,43.524c0,59.299-23.093,115.048-65.023,156.978
		S315.3,512,256.001,512z M240.429,20.398c-12.752,0-23.127,10.375-23.127,23.127v40.322c0,4.733-3.257,8.845-7.865,9.928
		c-36.202,8.515-69.395,27.074-95.992,53.67c-38.079,38.078-59.049,88.705-59.049,142.554c0,53.851,20.971,104.478,59.049,142.554
		c38.077,38.078,88.703,59.048,142.554,59.048s104.478-20.971,142.554-59.049c38.079-38.077,59.049-88.703,59.049-142.554
		c0-12.751-10.375-23.126-23.127-23.126s-23.127,10.375-23.127,23.126c0,85.66-69.689,155.35-155.349,155.35
		s-155.35-69.689-155.35-155.349c0-65.376,41.396-124.154,103.008-146.263c3.126-1.124,6.601-0.652,9.314,1.258
		c2.715,1.91,4.331,5.022,4.331,8.342v32.415c0,12.751,10.375,23.126,23.127,23.126c6.178,0,11.985-2.405,16.353-6.773
		l71.112-71.114c4.368-4.367,6.774-10.176,6.774-16.352s-2.405-11.985-6.774-16.352l-71.113-71.113
		C252.414,22.803,246.607,20.398,240.429,20.398z"/>
	<path style="fill:#248A9C;" d="M265.362,178.666c-2.611,0-5.22-0.996-7.212-2.987c-3.983-3.983-3.983-10.441,0-14.425l1.6-1.6
		c3.984-3.982,10.44-3.982,14.425,0c3.983,3.983,3.983,10.441,0,14.425l-1.6,1.6C270.582,177.669,267.972,178.666,265.362,178.666z"
		/>
	<path style="fill:#248A9C;" d="M289.451,154.64c-2.611,0-5.22-0.996-7.212-2.987c-3.983-3.983-3.983-10.441,0-14.425l26.463-26.463
		c3.984-3.982,10.44-3.982,14.425,0c3.983,3.983,3.983,10.441,0,14.425l-26.463,26.463
		C294.671,153.645,292.061,154.64,289.451,154.64z"/>
</g>
</svg>