<?xml version="1.0" encoding="iso-8859-1"?>
<!-- Uploaded to: SVG Repo, www.svgrepo.com, Generator: SVG Repo Mixer Tools -->
<svg height="800px" width="800px" version="1.1" id="Layer_1" xmlns="http://www.w3.org/2000/svg" xmlns:xlink="http://www.w3.org/1999/xlink" 
	 viewBox="0 0 512 512" xml:space="preserve">
<path style="fill:#FFF173;" d="M405.766,140.233c-28.211-28.212-62.982-47.475-100.87-56.386V43.525
	c0-18.405-14.92-33.326-33.326-33.326l0,0c-8.839,0-17.315,3.512-23.564,9.761l-71.113,71.113
	c-13.014,13.014-13.014,34.115,0,47.129l71.113,71.113c6.25,6.25,14.727,9.761,23.564,9.761l0,0
	c18.405,0,33.326-14.92,33.326-33.325v-32.415c56.052,20.113,96.255,73.777,96.255,136.663c0,80.036-65.115,145.151-145.151,145.151
	s-145.151-65.114-145.151-145.151c0-18.405-14.92-33.325-33.325-33.325c-18.405,0-33.326,14.92-33.326,33.325
	c0,56.575,22.031,109.763,62.036,149.766c40.003,40.004,93.192,62.036,149.766,62.036s109.763-22.031,149.766-62.036
	c40.004-40.004,62.036-93.192,62.036-149.766S445.77,180.237,405.766,140.233z"/>
<g>
	<path style="fill:#248A9C;" d="M256,512c-59.299,0-115.048-23.093-156.978-65.023s-65.023-97.679-65.023-156.978
		c0-23.999,19.525-43.524,43.525-43.524s43.525,19.525,43.525,43.524c0,74.413,60.538,134.952,134.951,134.952
		S390.95,364.412,390.95,289.999c0-51.821-29.943-98.869-75.856-121.303v17.055c0,23.999-19.525,43.524-43.525,43.524
		c-11.625,0-22.555-4.526-30.776-12.747l-71.114-71.114c-8.222-8.221-12.748-19.15-12.748-30.777
		c0-11.625,4.526-22.556,12.748-30.777l71.113-71.113C249.014,4.527,259.945,0,271.571,0c24,0,43.525,19.525,43.525,43.525v32.398
		c36.833,10.12,70.537,29.753,97.883,57.098c41.93,41.931,65.023,97.68,65.023,156.978c0,59.299-23.093,115.048-65.023,156.978
		S315.299,512,256,512z M77.524,266.873c-12.752,0-23.127,10.375-23.127,23.126c0,53.851,20.971,104.478,59.049,142.554
		c38.076,38.078,88.702,59.048,142.553,59.048s104.478-20.971,142.554-59.049c38.079-38.077,59.049-88.703,59.049-142.554
		c0-53.85-20.971-104.477-59.049-142.554c-26.596-26.596-59.79-45.155-95.992-53.67c-4.608-1.084-7.865-5.195-7.865-9.928v-40.32
		c-0.001-12.752-10.375-23.127-23.127-23.127c-6.178,0-11.985,2.405-16.352,6.774l-71.113,71.112
		c-4.368,4.367-6.774,10.176-6.774,16.352s2.405,11.985,6.773,16.352l71.114,71.114c4.367,4.367,10.176,6.773,16.352,6.773
		c12.752,0,23.127-10.375,23.127-23.126v-32.415c0-3.32,1.616-6.432,4.331-8.342c2.713-1.909,6.187-2.382,9.314-1.258
		c61.612,22.109,103.008,80.888,103.008,146.263c0,85.66-69.689,155.35-155.349,155.35s-155.35-69.69-155.35-155.35
		C100.65,277.248,90.276,266.873,77.524,266.873z"/>
	<path style="fill:#248A9C;" d="M246.638,178.666c-2.611,0-5.22-0.996-7.212-2.987l-1.6-1.6c-3.983-3.983-3.983-10.441,0-14.425
		c3.984-3.982,10.44-3.982,14.425,0l1.6,1.6c3.983,3.983,3.983,10.441,0,14.425C251.858,177.669,249.249,178.666,246.638,178.666z"
		/>
	<path style="fill:#248A9C;" d="M222.549,154.64c-2.611,0-5.22-0.996-7.212-2.987l-26.463-26.463
		c-3.983-3.983-3.983-10.441,0-14.425c3.984-3.982,10.44-3.982,14.425,0l26.463,26.463c3.983,3.983,3.983,10.441,0,14.425
		C227.769,153.645,225.16,154.64,222.549,154.64z"/>
</g>
</svg>